<?xml version='1.0' encoding='utf-8'?>
<svg xmlns="http://www.w3.org/2000/svg" version="1.1" viewBox="0 0 2955 925"> <g transform="translate(67275,35425)"> <g fill="none"> <g stroke="#106e7d"> <g stroke-width="150"> <path transform="matrix(.1 0 0 .1 -65798 -34962)" d="m7800-4100a975 450 0 0 1-975 450 975 450 0 0 1-975-450 975 450 0 0 1 975-450 975 450 0 0 1 975 450z"/> <path transform="matrix(.1 0 0 .1 -65798 -34962)" d="m7800-3650c0 119.35-102.72 233.81-285.57 318.2-182.85 84.392-430.84 131.8-689.43 131.8s-506.58-47.41-689.43-131.8c-182.85-84.392-285.57-198.85-285.57-318.2"/> <path transform="matrix(.1 0 0 .1 -65798 -34962)" d="m7800-3200c0 119.35-102.72 233.81-285.57 318.2-182.85 84.392-430.84 131.8-689.43 131.8s-506.58-47.41-689.43-131.8c-182.85-84.392-285.57-198.85-285.57-318.2"/> <path transform="matrix(.1 0 0 .1 -65798 -34962)" d="m7800-2300c0 119.35-102.72 233.81-285.57 318.2-182.85 84.392-430.84 131.8-689.43 131.8s-506.58-47.41-689.43-131.8c-182.85-84.392-285.57-198.85-285.57-318.2"/> <path transform="matrix(.1 0 0 .1 -65798 -34962)" d="m7800-2750c0 119.35-102.72 233.81-285.57 318.2-182.85 84.392-430.84 131.8-689.43 131.8s-506.58-47.41-689.43-131.8c-182.85-84.392-285.57-198.85-285.57-318.2"/> <path transform="matrix(.1 0 0 .10056 -65798 -34961)" d="m5850-4100v1800"/> <path transform="matrix(.1 0 0 .10056 -65798 -34961)" d="m7800-4100v1800"/> </g> <path transform="matrix(.1 0 0 .1 -60548 -31882)" d="m-45675-32650c0 200 0 400-595.84 500-595.84 100-1787.5 100-2979.2 100" stroke-width="250"/> </g> <g stroke="#17a2b8"> <g stroke-width="150"> <path transform="matrix(.1 0 0 .1 -65452 -34962)" d="m7800-4100a975 450 0 0 1-975 450 975 450 0 0 1-975-450 975 450 0 0 1 975-450 975 450 0 0 1 975 450z"/> <path transform="matrix(.1 0 0 .1 -65452 -34962)" d="m7800-3650c0 119.35-102.72 233.81-285.57 318.2-182.85 84.392-430.84 131.8-689.43 131.8s-506.58-47.41-689.43-131.8c-182.85-84.392-285.57-198.85-285.57-318.2"/> <path transform="matrix(.1 0 0 .1 -65452 -34962)" d="m7800-3200c0 119.35-102.72 233.81-285.57 318.2-182.85 84.392-430.84 131.8-689.43 131.8s-506.58-47.41-689.43-131.8c-182.85-84.392-285.57-198.85-285.57-318.2"/> <path transform="matrix(.1 0 0 .1 -65452 -34962)" d="m7800-2300c0 119.35-102.72 233.81-285.57 318.2-182.85 84.392-430.84 131.8-689.43 131.8s-506.58-47.41-689.43-131.8c-182.85-84.392-285.57-198.85-285.57-318.2"/> <path transform="matrix(.1 0 0 .1 -65452 -34962)" d="m7800-2750c0 119.35-102.72 233.81-285.57 318.2-182.85 84.392-430.84 131.8-689.43 131.8s-506.58-47.41-689.43-131.8c-182.85-84.392-285.57-198.85-285.57-318.2"/> <path transform="matrix(.1 0 0 .10056 -65452 -34961)" d="m5850-4100v1800"/> <path transform="matrix(.1 0 0 .10056 -65452 -34961)" d="m7800-4100v1800"/> </g> <path transform="matrix(.1 0 0 .1 -60548 -31882)" d="m-42225-32650c0 366.67 0 733.33-1170.9 916.67-1170.9 183.33-3512.5 183.33-5854.1 183.33" stroke-width="250"/> </g> <g stroke="#61c0cf"> <g stroke-width="150"> <path transform="matrix(.1 0 0 .1 -65108 -34962)" d="m7800-4100a975 450 0 0 1-975 450 975 450 0 0 1-975-450 975 450 0 0 1 975-450 975 450 0 0 1 975 450z"/> <path transform="matrix(.1 0 0 .1 -65108 -34962)" d="m7800-3650c0 119.35-102.72 233.81-285.57 318.2-182.85 84.392-430.84 131.8-689.43 131.8s-506.58-47.41-689.43-131.8c-182.85-84.392-285.57-198.85-285.57-318.2"/> <path transform="matrix(.1 0 0 .1 -65108 -34962)" d="m7800-3200c0 119.35-102.72 233.81-285.57 318.2-182.85 84.392-430.84 131.8-689.43 131.8s-506.58-47.41-689.43-131.8c-182.85-84.392-285.57-198.85-285.57-318.2"/> <path transform="matrix(.1 0 0 .1 -65108 -34962)" d="m7800-2300c0 119.35-102.72 233.81-285.57 318.2-182.85 84.392-430.84 131.8-689.43 131.8s-506.58-47.41-689.43-131.8c-182.85-84.392-285.57-198.85-285.57-318.2"/> <path transform="matrix(.1 0 0 .1 -65108 -34962)" d="m7800-2750c0 119.35-102.72 233.81-285.57 318.2-182.85 84.392-430.84 131.8-689.43 131.8s-506.58-47.41-689.43-131.8c-182.85-84.392-285.57-198.85-285.57-318.2"/> <path transform="matrix(.1 0 0 .10056 -65108 -34961)" d="m5850-4100v1800"/> <path transform="matrix(.1 0 0 .10056 -65108 -34961)" d="m7800-4100v1800"/> </g> <path transform="matrix(.1 0 0 .1 -60548 -31882)" d="m-38775-32650c0 533.33 0 1066.7-1745.9 1333.3s-5237.5 266.67-8729.1 266.67" stroke-width="250"/> </g> <g stroke="#106e7d"> <g stroke-width="150"> <path transform="matrix(.1 0 0 .1 -65798 -34322)" d="m7800-4100a975 450 0 0 1-975 450 975 450 0 0 1-975-450 975 450 0 0 1 975-450 975 450 0 0 1 975 450z"/> <path transform="matrix(.1 0 0 .1 -65798 -34322)" d="m7800-3650c0 119.35-102.72 233.81-285.57 318.2-182.85 84.392-430.84 131.8-689.43 131.8s-506.58-47.41-689.43-131.8c-182.85-84.392-285.57-198.85-285.57-318.2"/> <path transform="matrix(.1 0 0 .1 -65798 -34322)" d="m7800-3200c0 119.35-102.72 233.81-285.57 318.2-182.85 84.392-430.84 131.8-689.43 131.8s-506.58-47.41-689.43-131.8c-182.85-84.392-285.57-198.85-285.57-318.2"/> <path transform="matrix(.1 0 0 .1 -65798 -34322)" d="m7800-2300c0 119.35-102.72 233.81-285.57 318.2-182.85 84.392-430.84 131.8-689.43 131.8s-506.58-47.41-689.43-131.8c-182.85-84.392-285.57-198.85-285.57-318.2"/> <path transform="matrix(.1 0 0 .1 -65798 -34322)" d="m7800-2750c0 119.35-102.72 233.81-285.57 318.2-182.85 84.392-430.84 131.8-689.43 131.8s-506.58-47.41-689.43-131.8c-182.85-84.392-285.57-198.85-285.57-318.2"/> <path transform="matrix(.1 0 0 .10056 -65798 -34321)" d="m5850-4100v1800"/> <path transform="matrix(.1 0 0 .10056 -65798 -34321)" d="m7800-4100v1800"/> </g> <path transform="matrix(.1 0 0 .1 -60548 -31882)" d="m-45675-28950c0-200 0-400-595.84-500-595.84-100-1787.5-100-2979.2-100" stroke-width="250"/> </g> <g stroke="#17a2b8"> <g stroke-width="150"> <path transform="matrix(.1 0 0 .1 -65452 -34322)" d="m7800-4100a975 450 0 0 1-975 450 975 450 0 0 1-975-450 975 450 0 0 1 975-450 975 450 0 0 1 975 450z"/> <path transform="matrix(.1 0 0 .1 -65452 -34322)" d="m7800-3650c0 119.35-102.72 233.81-285.57 318.2-182.85 84.392-430.84 131.8-689.43 131.8s-506.58-47.41-689.43-131.8c-182.85-84.392-285.57-198.85-285.57-318.2"/> <path transform="matrix(.1 0 0 .1 -65452 -34322)" d="m7800-3200c0 119.35-102.72 233.81-285.57 318.2-182.85 84.392-430.84 131.8-689.43 131.8s-506.58-47.41-689.43-131.8c-182.85-84.392-285.57-198.85-285.57-318.2"/> <path transform="matrix(.1 0 0 .1 -65452 -34322)" d="m7800-2300c0 119.35-102.72 233.81-285.57 318.2-182.85 84.392-430.84 131.8-689.43 131.8s-506.58-47.41-689.43-131.8c-182.85-84.392-285.57-198.85-285.57-318.2"/> <path transform="matrix(.1 0 0 .1 -65452 -34322)" d="m7800-2750c0 119.35-102.72 233.81-285.57 318.2-182.85 84.392-430.84 131.8-689.43 131.8s-506.58-47.41-689.43-131.8c-182.85-84.392-285.57-198.85-285.57-318.2"/> <path transform="matrix(.1 0 0 .10056 -65452 -34321)" d="m5850-4100v1800"/> <path transform="matrix(.1 0 0 .10056 -65452 -34321)" d="m7800-4100v1800"/> </g> <path transform="matrix(.1 0 0 .1 -60548 -31882)" d="m-42225-28950c0-366.67 0-733.33-1170.9-916.67s-3512.5-183.33-5854.1-183.33" stroke-width="250"/> </g> <g stroke="#61c0cf"> <g stroke-width="150"> <path transform="matrix(.1 0 0 .1 -65108 -34322)" d="m7800-4100a975 450 0 0 1-975 450 975 450 0 0 1-975-450 975 450 0 0 1 975-450 975 450 0 0 1 975 450z"/> <path transform="matrix(.1 0 0 .1 -65108 -34322)" d="m7800-3650c0 119.35-102.72 233.81-285.57 318.2-182.85 84.392-430.84 131.8-689.43 131.8s-506.58-47.41-689.43-131.8c-182.85-84.392-285.57-198.85-285.57-318.2"/> <path transform="matrix(.1 0 0 .1 -65108 -34322)" d="m7800-3200c0 119.35-102.72 233.81-285.57 318.2-182.85 84.392-430.84 131.8-689.43 131.8s-506.58-47.41-689.43-131.8c-182.85-84.392-285.57-198.85-285.57-318.2"/> <path transform="matrix(.1 0 0 .1 -65108 -34322)" d="m7800-2300c0 119.35-102.72 233.81-285.57 318.2-182.85 84.392-430.84 131.8-689.43 131.8s-506.58-47.41-689.43-131.8c-182.85-84.392-285.57-198.85-285.57-318.2"/> <path transform="matrix(.1 0 0 .1 -65108 -34322)" d="m7800-2750c0 119.35-102.72 233.81-285.57 318.2-182.85 84.392-430.84 131.8-689.43 131.8s-506.58-47.41-689.43-131.8c-182.85-84.392-285.57-198.85-285.57-318.2"/> <path transform="matrix(.1 0 0 .10056 -65108 -34321)" d="m5850-4100v1800"/> <path transform="matrix(.1 0 0 .10056 -65108 -34321)" d="m7800-4100v1800"/> </g> <path transform="matrix(.1 0 0 .1 -60548 -31882)" d="m-38775-28950c0-533.33 0-1066.7-1745.9-1333.3s-5237.5-266.67-8729.1-266.67" stroke-width="250"/> </g> <g stroke="#106e7d"> <g stroke-width="150"> <path transform="matrix(-.1 0 0 .1 -65798 -34962)" d="m7800-4100a975 450 0 0 1-975 450 975 450 0 0 1-975-450 975 450 0 0 1 975-450 975 450 0 0 1 975 450z"/> <path transform="matrix(-.1 0 0 .1 -65798 -34962)" d="m7800-3650c0 119.35-102.72 233.81-285.57 318.2-182.85 84.392-430.84 131.8-689.43 131.8s-506.58-47.41-689.43-131.8c-182.85-84.392-285.57-198.85-285.57-318.2"/> <path transform="matrix(-.1 0 0 .1 -65798 -34962)" d="m7800-3200c0 119.35-102.72 233.81-285.57 318.2-182.85 84.392-430.84 131.8-689.43 131.8s-506.58-47.41-689.43-131.8c-182.85-84.392-285.57-198.85-285.57-318.2"/> <path transform="matrix(-.1 0 0 .1 -65798 -34962)" d="m7800-2300c0 119.35-102.72 233.81-285.57 318.2-182.85 84.392-430.84 131.8-689.43 131.8s-506.58-47.41-689.43-131.8c-182.85-84.392-285.57-198.85-285.57-318.2"/> <path transform="matrix(-.1 0 0 .1 -65798 -34962)" d="m7800-2750c0 119.35-102.72 233.81-285.57 318.2-182.85 84.392-430.84 131.8-689.43 131.8s-506.58-47.41-689.43-131.8c-182.85-84.392-285.57-198.85-285.57-318.2"/> <path transform="matrix(-.1 0 0 .10056 -65798 -34961)" d="m5850-4100v1800"/> <path transform="matrix(-.1 0 0 .10056 -65798 -34961)" d="m7800-4100v1800"/> </g> <path transform="matrix(.1 0 0 .1 -60548 -31882)" d="m-59325-32650c0 200 0 400 595.84 500 595.84 100 1787.5 100 2979.2 100" stroke-width="250"/> </g> <g stroke="#17a2b8"> <g stroke-width="150"> <path transform="matrix(-.1 0 0 .1 -66142 -34962)" d="m7800-4100a975 450 0 0 1-975 450 975 450 0 0 1-975-450 975 450 0 0 1 975-450 975 450 0 0 1 975 450z"/> <path transform="matrix(-.1 0 0 .1 -66142 -34962)" d="m7800-3650c0 119.35-102.72 233.81-285.57 318.2-182.85 84.392-430.84 131.8-689.43 131.8s-506.58-47.41-689.43-131.8c-182.85-84.392-285.57-198.85-285.57-318.2"/> <path transform="matrix(-.1 0 0 .1 -66142 -34962)" d="m7800-3200c0 119.35-102.72 233.81-285.57 318.2-182.85 84.392-430.84 131.8-689.43 131.8s-506.58-47.41-689.43-131.8c-182.85-84.392-285.57-198.85-285.57-318.2"/> <path transform="matrix(-.1 0 0 .1 -66142 -34962)" d="m7800-2300c0 119.35-102.72 233.81-285.57 318.2-182.85 84.392-430.84 131.8-689.43 131.8s-506.58-47.41-689.43-131.8c-182.85-84.392-285.57-198.85-285.57-318.2"/> <path transform="matrix(-.1 0 0 .1 -66142 -34962)" d="m7800-2750c0 119.35-102.72 233.81-285.57 318.2-182.85 84.392-430.84 131.8-689.43 131.8s-506.58-47.41-689.43-131.8c-182.85-84.392-285.57-198.85-285.57-318.2"/> <path transform="matrix(-.1 0 0 .10056 -66142 -34961)" d="m5850-4100v1800"/> <path transform="matrix(-.1 0 0 .10056 -66142 -34961)" d="m7800-4100v1800"/> </g> <path transform="matrix(.1 0 0 .1 -60548 -31882)" d="m-62775-32650c0 366.67 0 733.33 1170.9 916.67 1170.9 183.33 3512.5 183.33 5854.1 183.33" stroke-width="250"/> </g> <g stroke="#61c0cf"> <g stroke-width="150"> <path transform="matrix(-.1 0 0 .1 -66488 -34962)" d="m7800-4100a975 450 0 0 1-975 450 975 450 0 0 1-975-450 975 450 0 0 1 975-450 975 450 0 0 1 975 450z"/> <path transform="matrix(-.1 0 0 .1 -66488 -34962)" d="m7800-3650c0 119.35-102.72 233.81-285.57 318.2-182.85 84.392-430.84 131.8-689.43 131.8s-506.58-47.41-689.43-131.8c-182.85-84.392-285.57-198.85-285.57-318.2"/> <path transform="matrix(-.1 0 0 .1 -66488 -34962)" d="m7800-3200c0 119.35-102.72 233.81-285.57 318.2-182.85 84.392-430.84 131.8-689.43 131.8s-506.58-47.41-689.43-131.8c-182.85-84.392-285.57-198.85-285.57-318.2"/> <path transform="matrix(-.1 0 0 .1 -66488 -34962)" d="m7800-2300c0 119.35-102.72 233.81-285.57 318.2-182.85 84.392-430.84 131.8-689.43 131.8s-506.58-47.41-689.43-131.8c-182.85-84.392-285.57-198.85-285.57-318.2"/> <path transform="matrix(-.1 0 0 .1 -66488 -34962)" d="m7800-2750c0 119.35-102.72 233.81-285.57 318.2-182.85 84.392-430.84 131.8-689.43 131.8s-506.58-47.41-689.43-131.8c-182.85-84.392-285.57-198.85-285.57-318.2"/> <path transform="matrix(-.1 0 0 .10056 -66488 -34961)" d="m5850-4100v1800"/> <path transform="matrix(-.1 0 0 .10056 -66488 -34961)" d="m7800-4100v1800"/> </g> <path transform="matrix(.1 0 0 .1 -60548 -31882)" d="m-66225-32650c0 533.33 0 1066.7 1745.9 1333.3s5237.5 266.67 8729.1 266.67" stroke-width="250"/> </g> <g stroke="#106e7d"> <g stroke-width="150"> <path transform="matrix(-.1 0 0 .1 -65798 -34322)" d="m7800-4100a975 450 0 0 1-975 450 975 450 0 0 1-975-450 975 450 0 0 1 975-450 975 450 0 0 1 975 450z"/> <path transform="matrix(-.1 0 0 .1 -65798 -34322)" d="m7800-3650c0 119.35-102.72 233.81-285.57 318.2-182.85 84.392-430.84 131.8-689.43 131.8s-506.58-47.41-689.43-131.8c-182.85-84.392-285.57-198.85-285.57-318.2"/> <path transform="matrix(-.1 0 0 .1 -65798 -34322)" d="m7800-3200c0 119.35-102.72 233.81-285.57 318.2-182.85 84.392-430.84 131.8-689.43 131.8s-506.58-47.41-689.43-131.8c-182.85-84.392-285.57-198.85-285.57-318.2"/> <path transform="matrix(-.1 0 0 .1 -65798 -34322)" d="m7800-2300c0 119.35-102.72 233.81-285.57 318.2-182.85 84.392-430.84 131.8-689.43 131.8s-506.58-47.41-689.43-131.8c-182.85-84.392-285.57-198.85-285.57-318.2"/> <path transform="matrix(-.1 0 0 .1 -65798 -34322)" d="m7800-2750c0 119.35-102.72 233.81-285.57 318.2-182.85 84.392-430.84 131.8-689.43 131.8s-506.58-47.41-689.43-131.8c-182.85-84.392-285.57-198.85-285.57-318.2"/> <path transform="matrix(-.1 0 0 .10056 -65798 -34321)" d="m5850-4100v1800"/> <path transform="matrix(-.1 0 0 .10056 -65798 -34321)" d="m7800-4100v1800"/> </g> <path transform="matrix(.1 0 0 .1 -60548 -31882)" d="m-59325-28950c0-200 0-400 595.84-500 595.84-100 1787.5-100 2979.2-100" stroke-width="250"/> </g> <g stroke="#17a2b8"> <g stroke-width="150"> <path transform="matrix(-.1 0 0 .1 -66142 -34322)" d="m7800-4100a975 450 0 0 1-975 450 975 450 0 0 1-975-450 975 450 0 0 1 975-450 975 450 0 0 1 975 450z"/> <path transform="matrix(-.1 0 0 .1 -66142 -34322)" d="m7800-3650c0 119.35-102.72 233.81-285.57 318.2-182.85 84.392-430.84 131.8-689.43 131.8s-506.58-47.41-689.43-131.8c-182.85-84.392-285.57-198.85-285.57-318.2"/> <path transform="matrix(-.1 0 0 .1 -66142 -34322)" d="m7800-3200c0 119.35-102.72 233.81-285.57 318.2-182.85 84.392-430.84 131.8-689.43 131.8s-506.58-47.41-689.43-131.8c-182.85-84.392-285.57-198.85-285.57-318.2"/> <path transform="matrix(-.1 0 0 .1 -66142 -34322)" d="m7800-2300c0 119.35-102.72 233.81-285.57 318.2-182.85 84.392-430.84 131.8-689.43 131.8s-506.58-47.41-689.43-131.8c-182.85-84.392-285.57-198.85-285.57-318.2"/> <path transform="matrix(-.1 0 0 .1 -66142 -34322)" d="m7800-2750c0 119.35-102.72 233.81-285.57 318.2-182.85 84.392-430.84 131.8-689.43 131.8s-506.58-47.41-689.43-131.8c-182.85-84.392-285.57-198.85-285.57-318.2"/> <path transform="matrix(-.1 0 0 .10056 -66142 -34321)" d="m5850-4100v1800"/> <path transform="matrix(-.1 0 0 .10056 -66142 -34321)" d="m7800-4100v1800"/> </g> <path transform="matrix(.1 0 0 .1 -60548 -31882)" d="m-62775-28950c0-366.67 0-733.33 1170.9-916.67s3512.5-183.33 5854.1-183.33" stroke-width="250"/> </g> <g stroke="#61c0cf"> <g stroke-width="150"> <path transform="matrix(-.1 0 0 .1 -66488 -34322)" d="m7800-4100a975 450 0 0 1-975 450 975 450 0 0 1-975-450 975 450 0 0 1 975-450 975 450 0 0 1 975 450z"/> <path transform="matrix(-.1 0 0 .1 -66488 -34322)" d="m7800-3650c0 119.35-102.72 233.81-285.57 318.2-182.85 84.392-430.84 131.8-689.43 131.8s-506.58-47.41-689.43-131.8c-182.85-84.392-285.57-198.85-285.57-318.2"/> <path transform="matrix(-.1 0 0 .1 -66488 -34322)" d="m7800-3200c0 119.35-102.72 233.81-285.57 318.2-182.85 84.392-430.84 131.8-689.43 131.8s-506.58-47.41-689.43-131.8c-182.85-84.392-285.57-198.85-285.57-318.2"/> <path transform="matrix(-.1 0 0 .1 -66488 -34322)" d="m7800-2300c0 119.35-102.72 233.81-285.57 318.2-182.85 84.392-430.84 131.8-689.43 131.8s-506.58-47.41-689.43-131.8c-182.85-84.392-285.57-198.85-285.57-318.2"/> <path transform="matrix(-.1 0 0 .1 -66488 -34322)" d="m7800-2750c0 119.35-102.72 233.81-285.57 318.2-182.85 84.392-430.84 131.8-689.43 131.8s-506.58-47.41-689.43-131.8c-182.85-84.392-285.57-198.85-285.57-318.2"/> <path transform="matrix(-.1 0 0 .10056 -66488 -34321)" d="m5850-4100v1800"/> <path transform="matrix(-.1 0 0 .10056 -66488 -34321)" d="m7800-4100v1800"/> </g> <path transform="matrix(.1 0 0 .1 -60548 -31882)" d="m-66225-28950c0-533.33 0-1066.7 1745.9-1333.3s5237.5-266.67 8729.1-266.67" stroke-width="250"/> </g> <g stroke="#17a2b8" stroke-width="250"> <path transform="matrix(.1 0 0 .1 -65798 -34962)" d="m3250-3e3a3250 1500 0 0 1-3250 1500 3250 1500 0 0 1-3250-1500 3250 1500 0 0 1 3250-1500 3250 1500 0 0 1 3250 1500z"/> <path transform="matrix(.1 0 0 .1 -65798 -34962)" d="m3250-1500c0 397.82-342.41 779.36-951.9 1060.7-609.49 281.3-1436.1 439.34-2298.1 439.34s-1688.6-158.04-2298.1-439.34c-609.5-281.3-951.9-662.84-951.9-1060.7"/> <path transform="matrix(.1 0 0 .1 -65798 -34962)" d="m3250 0c0 397.82-342.41 779.36-951.9 1060.7-609.49 281.3-1436.1 439.34-2298.1 439.34s-1688.6-158.04-2298.1-439.34c-609.5-281.3-951.9-662.84-951.9-1060.7"/> <path transform="matrix(.1 0 0 .1 -65798 -34962)" d="m3250 3e3c0 397.82-342.41 779.36-951.9 1060.7-609.49 281.3-1436.1 439.34-2298.1 439.34s-1688.6-158.04-2298.1-439.34c-609.5-281.3-951.9-662.84-951.9-1060.7"/> <path transform="matrix(.1 0 0 .1 -65798 -34962)" d="m3250 1500c0 397.82-342.41 779.36-951.9 1060.7-609.49 281.3-1436.1 439.34-2298.1 439.34s-1688.6-158.04-2298.1-439.34c-609.5-281.3-951.9-662.84-951.9-1060.7"/> <path transform="matrix(.1 0 0 .10017 -65798 -34962)" d="m-3250-3e3v6e3"/> <path transform="matrix(.1 0 0 .10017 -65798 -34962)" d="m3250-3e3v6e3"/> </g> </g> </g> </svg>